# xmcd CD database file
# Copyright (C) 1996 Ti Kan
#
# Track frame offsets:
#	150
#	14972
#	34837
#	57100
#	73445
#	90452
#	122722
#	139865
#	156855
#	173342
#	186667
#	201797
#	218755
#	241757
#
# Disc length: 3644 seconds
#
# Revision: 1
# Processed by: cddbd v1.4b41PL1 Copyright (c) Steve Scherf et al.
# Submitted via: EasyCD 2.21 - (C) 1996 Greg Leichner
#
DISCID=cc0e3a0e
DTITLE=Hal Ketchum - Live
DYEAR=1900
DGENRE=
TTITLE0=Veil Of Tears
TTITLE1=Every Little Word
TTITLE2=Satisfied Mind
TTITLE3=Sure Love
TTITLE4=Hearts Are Gonna Roll
TTITLE5=Past The Point Of Rescue
TTITLE6=(Tonight We Just Might) Fall In Love Again
TTITLE7=I Know Where Love Lives
TTITLE8=Till The Coast Is Clear
TTITLE9=Small Town Saturday Night
TTITLE10=No Easy Road
TTITLE11=That's What I Get For Losing You
TTITLE12=The Long Way
TTITLE13=Freeborn Man
EXTD=
EXTT0=
EXTT1=
EXTT2=
EXTT3=
EXTT4=
EXTT5=
EXTT6=
EXTT7=
EXTT8=
EXTT9=
EXTT10=
EXTT11=
EXTT12=
EXTT13=
PLAYORDER=
